<svg width="20" height="20" viewBox="0 0 20 20" fill="none" xmlns="http://www.w3.org/2000/svg">
<path fill-rule="evenodd" clip-rule="evenodd" d="M15.6986 5.69508C16.0891 5.30456 16.0891 4.67139 15.6986 4.28087C15.308 3.89034 14.6749 3.89034 14.2844 4.28087L9.98975 8.57548L5.69514 4.28087C5.30462 3.89034 4.67145 3.89034 4.28093 4.28087C3.89041 4.67139 3.89041 5.30456 4.28093 5.69508L8.57554 9.98969L4.28093 14.2843C3.89041 14.6748 3.89041 15.308 4.28093 15.6985C4.67145 16.089 5.30462 16.089 5.69514 15.6985L9.98975 11.4039L14.2844 15.6985C14.6749 16.089 15.308 16.089 15.6986 15.6985C16.0891 15.308 16.0891 14.6748 15.6986 14.2843L11.404 9.98969L15.6986 5.69508Z" fill="#5B617C"/>
</svg>
