<svg width="20" height="20" viewBox="0 0 20 20" fill="none" xmlns="http://www.w3.org/2000/svg">
<path fill-rule="evenodd" clip-rule="evenodd" d="M10 2.50018C10.3452 2.50018 10.625 2.78001 10.625 3.12518L10.625 12.8127L13.0891 10.2262C13.3272 9.97628 13.7229 9.96669 13.9728 10.2048C14.2227 10.4429 14.2323 10.8385 13.9942 11.0884L10.4525 14.806C10.3346 14.9298 10.171 14.9999 10 14.9999C9.82898 14.9999 9.66544 14.9298 9.54748 14.806L6.00582 11.0884C5.76772 10.8385 5.77731 10.4429 6.02723 10.2048C6.27714 9.96669 6.67276 9.97628 6.91085 10.2262L9.375 12.8127L9.375 3.12518C9.375 2.78001 9.65482 2.50018 10 2.50018ZM5 16.8749C5 16.5297 5.27982 16.2499 5.625 16.2499H14.375C14.7202 16.2499 15 16.5297 15 16.8749C15 17.22 14.7202 17.4999 14.375 17.4999H5.625C5.27982 17.4999 5 17.22 5 16.8749Z" fill="#A5AABE"/>
</svg>
