<svg width="721" height="721" viewBox="0 0 721 721" fill="none" xmlns="http://www.w3.org/2000/svg">
<g opacity="0.07" clip-path="url(#clip0_1_2155)">
<path d="M706.703 421.983C705.673 421.984 704.663 421.707 703.778 421.181C702.892 420.656 702.165 419.901 701.673 418.997L591.056 216.261L482.832 414.085C482.09 415.39 480.865 416.35 479.422 416.76C477.979 417.17 476.432 416.996 475.115 416.277C473.798 415.558 472.817 414.35 472.382 412.914C471.947 411.478 472.093 409.928 472.789 408.599L586.042 201.582C586.535 200.681 587.26 199.928 588.143 199.404C589.026 198.88 590.034 198.603 591.061 198.602C592.089 198.604 593.097 198.882 593.98 199.407C594.863 199.932 595.588 200.685 596.08 201.587L711.716 413.522C712.19 414.393 712.429 415.371 712.41 416.362C712.391 417.353 712.115 418.322 711.609 419.174C711.103 420.026 710.384 420.732 709.523 421.222C708.662 421.713 707.688 421.971 706.697 421.971L706.703 421.983Z" fill="#84879C"/>
<path d="M591.06 417.065C590.309 417.065 589.565 416.917 588.87 416.63C588.176 416.342 587.545 415.92 587.014 415.389C586.482 414.858 586.061 414.227 585.773 413.532C585.485 412.838 585.337 412.094 585.337 411.342V204.325C585.337 202.807 585.94 201.352 587.014 200.278C588.087 199.205 589.543 198.602 591.06 198.602C592.578 198.602 594.034 199.205 595.107 200.278C596.18 201.352 596.783 202.807 596.783 204.325V411.342C596.783 412.86 596.18 414.316 595.107 415.389C594.034 416.462 592.578 417.065 591.06 417.065V417.065Z" fill="#84879C"/>
<path d="M477.824 427.993V428.302C477.719 443.242 480.57 458.054 486.214 471.887C491.859 485.72 500.184 498.299 510.711 508.9C521.237 519.502 533.757 527.915 547.55 533.657C561.343 539.398 576.135 542.354 591.075 542.354C606.014 542.354 620.807 539.398 634.599 533.657C648.392 527.915 660.912 519.502 671.439 508.9C681.965 498.299 690.291 485.72 695.935 471.887C701.579 458.054 704.43 443.242 704.325 428.302C704.325 428.201 704.325 428.1 704.325 427.993H477.824Z" fill="#C1CDD3"/>
<path d="M704.312 427.987V428.308C704.306 450.757 697.627 472.698 685.122 491.343C672.618 509.987 654.853 524.494 634.085 533.018C613.316 541.543 590.483 543.701 568.485 539.218C546.488 534.736 526.32 523.815 510.543 507.843C525.263 514.623 541.282 518.115 557.487 518.078C583.517 518.089 608.757 509.139 628.965 492.732C649.173 476.326 663.117 453.463 668.454 427.987H704.312Z" fill="#BAC2D3"/>
<path d="M709.26 404.52H472.856C469.788 404.587 466.868 405.853 464.722 408.047C462.576 410.241 461.375 413.187 461.375 416.256C461.375 419.325 462.576 422.272 464.722 424.465C466.868 426.659 469.788 427.925 472.856 427.992H709.26C710.823 428.026 712.377 427.748 713.83 427.174C715.284 426.599 716.609 425.74 717.726 424.647C718.843 423.554 719.731 422.249 720.337 420.808C720.943 419.367 721.256 417.819 721.256 416.256C721.256 414.693 720.943 413.146 720.337 411.705C719.731 410.264 718.843 408.958 717.726 407.865C716.609 406.772 715.284 405.913 713.83 405.339C712.377 404.764 710.823 404.486 709.26 404.52V404.52Z" fill="#DBE2EB"/>
<path d="M679.547 173.175C637.182 142.944 592.238 165.656 592.238 165.656L376.389 156.739V211.264L592.238 202.348C592.238 202.348 637.16 225.059 679.547 194.834C681.251 193.589 682.637 191.959 683.592 190.077C684.548 188.196 685.046 186.115 685.046 184.004C685.046 181.894 684.548 179.813 683.592 177.932C682.637 176.05 681.251 174.42 679.547 173.175V173.175Z" fill="#43567C"/>
<path d="M679.559 194.828C637.184 225.07 592.284 202.33 592.284 202.33L376.407 211.23V192.079L592.284 183.168C592.284 183.168 637.184 205.851 679.559 175.665C680.088 175.306 680.579 174.895 681.024 174.437C682.412 175.799 683.487 177.446 684.175 179.265C684.863 181.084 685.147 183.031 685.008 184.971C684.869 186.911 684.309 188.797 683.368 190.499C682.428 192.201 681.128 193.678 679.559 194.828V194.828Z" fill="#384868"/>
<path d="M591.06 210.048C590.309 210.048 589.565 209.9 588.87 209.612C588.176 209.324 587.545 208.903 587.014 208.371C586.482 207.84 586.061 207.209 585.773 206.515C585.485 205.82 585.337 205.076 585.337 204.325V164.799C585.337 163.281 585.94 161.826 587.014 160.753C588.087 159.679 589.542 159.076 591.06 159.076C592.578 159.076 594.034 159.679 595.107 160.753C596.18 161.826 596.783 163.281 596.783 164.799V204.325C596.783 205.843 596.18 207.298 595.107 208.371C594.034 209.445 592.578 210.048 591.06 210.048V210.048Z" fill="#84879C"/>
<path d="M14.2924 421.983C13.3014 421.982 12.3276 421.724 11.4665 421.233C10.6054 420.743 9.8865 420.037 9.38041 419.185C8.87431 418.333 8.59837 417.364 8.57964 416.373C8.5609 415.383 8.80002 414.404 9.27355 413.533L124.91 201.587C125.402 200.685 126.127 199.932 127.01 199.407C127.893 198.882 128.901 198.604 129.928 198.602C130.955 198.603 131.963 198.88 132.846 199.404C133.729 199.928 134.455 200.681 134.947 201.582L248.206 408.599C248.902 409.928 249.049 411.478 248.614 412.914C248.179 414.35 247.197 415.558 245.88 416.277C244.563 416.996 243.017 417.17 241.573 416.76C240.13 416.35 238.905 415.389 238.163 414.085L129.94 216.261L19.3225 418.997C18.8301 419.901 18.1029 420.656 17.2177 421.181C16.3324 421.706 15.3218 421.983 14.2924 421.983V421.983Z" fill="#84879C"/>
<path d="M129.938 417.065C128.42 417.065 126.965 416.462 125.892 415.389C124.818 414.316 124.215 412.86 124.215 411.342V204.325C124.215 202.807 124.818 201.352 125.892 200.278C126.965 199.205 128.42 198.602 129.938 198.602C131.456 198.602 132.912 199.205 133.985 200.278C135.058 201.352 135.661 202.807 135.661 204.325V411.342C135.661 412.86 135.058 414.316 133.985 415.389C132.912 416.462 131.456 417.065 129.938 417.065V417.065Z" fill="#84879C"/>
<path d="M243.174 427.993V428.302C243.279 443.242 240.428 458.054 234.783 471.887C229.139 485.72 220.814 498.299 210.287 508.9C199.761 519.502 187.24 527.915 173.448 533.657C159.655 539.398 144.863 542.354 129.923 542.354C114.983 542.354 100.191 539.398 86.3987 533.657C72.6062 527.915 60.0859 519.502 49.5592 508.9C39.0324 498.299 30.7072 485.72 25.063 471.887C19.4189 458.054 16.5674 443.242 16.6727 428.302C16.6727 428.201 16.6727 428.1 16.6727 427.993H243.174Z" fill="#C1CDD3"/>
<path d="M16.6875 427.987V428.308C16.6933 450.757 23.3728 472.698 35.8774 491.343C48.382 509.987 66.147 524.494 86.9151 533.018C107.683 541.543 130.517 543.701 152.514 539.218C174.512 534.736 194.68 523.815 210.456 507.843C195.737 514.623 179.718 518.115 163.512 518.078C137.483 518.089 112.243 509.139 92.0351 492.732C71.8271 476.326 57.8828 453.463 52.546 427.987H16.6875Z" fill="#BAC2D3"/>
<path d="M11.7381 404.52H248.142C251.21 404.587 254.129 405.853 256.275 408.047C258.421 410.241 259.623 413.187 259.623 416.256C259.623 419.325 258.421 422.272 256.275 424.465C254.129 426.659 251.21 427.925 248.142 427.992H11.7381C10.1753 428.026 8.62135 427.748 7.16751 427.174C5.71367 426.599 4.3892 425.74 3.27181 424.647C2.15442 423.554 1.26662 422.249 0.660513 420.808C0.0544027 419.367 -0.257812 417.819 -0.257812 416.256C-0.257812 414.693 0.0544027 413.146 0.660513 411.705C1.26662 410.264 2.15442 408.958 3.27181 407.865C4.3892 406.772 5.71367 405.913 7.16751 405.339C8.62135 404.764 10.1753 404.486 11.7381 404.52V404.52Z" fill="#DBE2EB"/>
<path d="M41.4608 173.175C83.8252 142.944 128.769 165.656 128.769 165.656L344.619 156.739V211.264L128.769 202.348C128.769 202.348 83.8477 225.059 41.4608 194.834C39.7568 193.589 38.3706 191.959 37.415 190.077C36.4595 188.196 35.9614 186.115 35.9614 184.004C35.9614 181.894 36.4595 179.813 37.415 177.932C38.3706 176.05 39.7568 174.42 41.4608 173.175V173.175Z" fill="#43567C"/>
<path d="M344.581 195.458V211.23L128.765 202.33C128.765 202.33 83.81 225.07 41.4569 194.827C38.5887 192.736 36.6683 189.591 36.118 186.085C35.5677 182.578 36.4324 178.996 38.5222 176.127C39.3164 177.273 40.3105 178.267 41.4569 179.061C83.8325 209.247 128.765 186.559 128.765 186.559L344.581 195.458Z" fill="#384868"/>
<path d="M129.938 210.048C128.42 210.048 126.965 209.445 125.892 208.371C124.818 207.298 124.215 205.843 124.215 204.325V164.799C124.215 163.281 124.818 161.826 125.892 160.753C126.965 159.679 128.42 159.076 129.938 159.076C131.456 159.076 132.912 159.679 133.985 160.753C135.058 161.826 135.661 163.281 135.661 164.799V204.325C135.661 205.843 135.058 207.298 133.985 208.371C132.912 209.445 131.456 210.048 129.938 210.048V210.048Z" fill="#84879C"/>
<path d="M394.221 587.293C420.909 522.668 399.854 473.511 382.955 369.934C366.057 266.358 394.221 191.515 394.221 138.133C393.883 110.774 385.473 84.1233 370.045 61.5266C368.994 59.9605 367.574 58.6772 365.91 57.7898C364.246 56.9024 362.389 56.4382 360.503 56.4382C358.617 56.4382 356.76 56.9024 355.096 57.7898C353.432 58.6772 352.012 59.9605 350.961 61.5266C335.532 84.1233 327.122 110.774 326.785 138.133C326.785 191.515 354.881 266.364 338.05 369.934C321.219 473.505 300.119 522.668 326.785 587.293C326.785 587.293 238.282 602.75 213.002 664.559H508.015C482.735 602.75 394.221 587.293 394.221 587.293V587.293Z" fill="#43567C"/>
<path d="M507.997 664.553H485.314C459.995 602.711 371.486 587.305 371.486 587.305C398.214 522.651 377.119 473.477 360.294 369.906C343.469 266.336 371.486 191.543 371.486 138.15C371.205 111.91 363.461 86.2929 349.158 64.2925C349.8 63.2955 350.386 62.4168 350.971 61.5381C352.017 59.9696 353.433 58.6835 355.095 57.7939C356.756 56.9043 358.612 56.4389 360.497 56.4389C362.381 56.4389 364.237 56.9043 365.899 57.7939C367.56 58.6835 368.977 59.9696 370.022 61.5381C385.467 84.1293 393.893 110.78 394.243 138.144C394.243 191.538 366.079 266.387 382.977 369.901C399.876 473.415 420.897 522.646 394.243 587.327C394.231 587.305 482.734 602.711 507.997 664.553V664.553Z" fill="#384868"/>
</g>
<defs>
<clipPath id="clip0_1_2155">
<rect width="721" height="721" fill="white"/>
</clipPath>
</defs>
</svg>
