<svg width="60" height="60" viewBox="0 0 60 60" fill="none" xmlns="http://www.w3.org/2000/svg">
<g clip-path="url(#clip0_1_2096)">
<path d="M58.8102 35.1165C58.7245 35.1165 58.6404 35.0935 58.5668 35.0498C58.4931 35.006 58.4326 34.9432 58.3916 34.868L49.1863 17.9968L40.1802 34.4593C40.1184 34.5678 40.0165 34.6477 39.8964 34.6818C39.7763 34.7159 39.6476 34.7015 39.538 34.6416C39.4284 34.5818 39.3467 34.4813 39.3105 34.3618C39.2743 34.2423 39.2865 34.1133 39.3444 34.0027L48.7691 16.7752C48.8101 16.7002 48.8705 16.6376 48.9439 16.594C49.0174 16.5503 49.1013 16.5273 49.1868 16.5272C49.2723 16.5274 49.3561 16.5505 49.4296 16.5942C49.5031 16.6379 49.5635 16.7006 49.6044 16.7757L59.2274 34.4124C59.2668 34.4848 59.2867 34.5663 59.2851 34.6487C59.2836 34.7312 59.2606 34.8118 59.2185 34.8827C59.1764 34.9536 59.1165 35.0124 59.0449 35.0532C58.9732 35.094 58.8922 35.1155 58.8097 35.1155L58.8102 35.1165Z" fill="#84879C"/>
<path d="M49.1867 34.7072C49.1242 34.7072 49.0622 34.6949 49.0044 34.671C48.9467 34.647 48.8942 34.612 48.8499 34.5677C48.8057 34.5235 48.7706 34.471 48.7467 34.4132C48.7228 34.3555 48.7104 34.2935 48.7104 34.231V17.0035C48.7104 16.8772 48.7606 16.756 48.8499 16.6667C48.9393 16.5774 49.0604 16.5272 49.1867 16.5272C49.313 16.5272 49.4341 16.5774 49.5235 16.6667C49.6128 16.756 49.6629 16.8772 49.6629 17.0035V34.231C49.6629 34.3573 49.6128 34.4784 49.5235 34.5677C49.4341 34.6571 49.313 34.7072 49.1867 34.7072Z" fill="#84879C"/>
<path d="M39.7634 35.6166V35.6424C39.7547 36.8856 39.9919 38.1183 40.4616 39.2694C40.9313 40.4205 41.6241 41.4673 42.5002 42.3495C43.3762 43.2318 44.4181 43.9319 45.5659 44.4097C46.7136 44.8875 47.9446 45.1335 49.1879 45.1335C50.4311 45.1335 51.6621 44.8875 52.8099 44.4097C53.9577 43.9319 54.9996 43.2318 55.8756 42.3495C56.7516 41.4673 57.4444 40.4205 57.9141 39.2694C58.3838 38.1183 58.6211 36.8856 58.6123 35.6424C58.6123 35.6339 58.6123 35.6255 58.6123 35.6166H39.7634Z" fill="#C1CDD3"/>
<path d="M58.6113 35.6161V35.6428C58.6108 37.511 58.055 39.3369 57.0144 40.8884C55.9738 42.44 54.4954 43.6472 52.7671 44.3566C51.0389 45.066 49.1387 45.2456 47.3081 44.8725C45.4776 44.4995 43.7992 43.5907 42.4863 42.2616C43.7112 42.8257 45.0443 43.1164 46.3929 43.1133C48.559 43.1142 50.6594 42.3694 52.3411 41.0041C54.0227 39.6388 55.1831 37.7362 55.6273 35.6161H58.6113Z" fill="#BAC2D3"/>
<path d="M59.023 33.6633H39.35C39.0947 33.6689 38.8517 33.7742 38.6731 33.9568C38.4945 34.1393 38.3945 34.3845 38.3945 34.6399C38.3945 34.8953 38.4945 35.1405 38.6731 35.323C38.8517 35.5056 39.0947 35.611 39.35 35.6165H59.023C59.153 35.6194 59.2824 35.5962 59.4033 35.5484C59.5243 35.5006 59.6345 35.4292 59.7275 35.3382C59.8205 35.2472 59.8944 35.1386 59.9448 35.0187C59.9953 34.8988 60.0213 34.77 60.0213 34.6399C60.0213 34.5098 59.9953 34.381 59.9448 34.2611C59.8944 34.1412 59.8205 34.0326 59.7275 33.9416C59.6345 33.8506 59.5243 33.7792 59.4033 33.7314C59.2824 33.6836 59.153 33.6604 59.023 33.6633Z" fill="#DBE2EB"/>
<path d="M56.5504 14.4113C53.0249 11.8955 49.2848 13.7855 49.2848 13.7855L31.3223 13.0435V17.581L49.2848 16.8389C49.2848 16.8389 53.023 18.7289 56.5504 16.2136C56.6922 16.11 56.8075 15.9744 56.8871 15.8178C56.9666 15.6612 57.008 15.4881 57.008 15.3124C57.008 15.1368 56.9666 14.9637 56.8871 14.8071C56.8075 14.6505 56.6922 14.5149 56.5504 14.4113Z" fill="#43567C"/>
<path d="M56.5514 16.2131C53.025 18.7298 49.2886 16.8375 49.2886 16.8375L31.3237 17.5781V15.9844L49.2886 15.2428C49.2886 15.2428 53.025 17.1305 56.5514 14.6184C56.5954 14.5886 56.6362 14.5544 56.6733 14.5162C56.7888 14.6296 56.8783 14.7667 56.9355 14.9181C56.9928 15.0694 57.0164 15.2314 57.0048 15.3929C56.9932 15.5543 56.9467 15.7113 56.8684 15.8529C56.7901 15.9945 56.6819 16.1174 56.5514 16.2131Z" fill="#384868"/>
<path d="M49.1867 17.4797C49.1242 17.4797 49.0622 17.4674 49.0044 17.4434C48.9467 17.4195 48.8942 17.3844 48.8499 17.3402C48.8057 17.296 48.7706 17.2435 48.7467 17.1857C48.7228 17.1279 48.7104 17.066 48.7104 17.0034V13.7142C48.7104 13.5879 48.7606 13.4668 48.8499 13.3775C48.9393 13.2882 49.0604 13.238 49.1867 13.238C49.313 13.238 49.4341 13.2882 49.5235 13.3775C49.6128 13.4668 49.6629 13.5879 49.6629 13.7142V17.0034C49.6629 17.1298 49.6128 17.2509 49.5235 17.3402C49.4341 17.4295 49.313 17.4797 49.1867 17.4797Z" fill="#84879C"/>
<path d="M1.18935 35.1165C1.10689 35.1164 1.02585 35.0949 0.954189 35.0541C0.882528 35.0133 0.822706 34.9546 0.780591 34.8836C0.738475 34.8127 0.715511 34.7321 0.713952 34.6497C0.712393 34.5672 0.732292 34.4858 0.771698 34.4133L10.3947 16.7757C10.4356 16.7006 10.496 16.6379 10.5695 16.5942C10.6429 16.5505 10.7268 16.5274 10.8123 16.5272C10.8978 16.5273 10.9817 16.5503 11.0551 16.594C11.1286 16.6376 11.189 16.7002 11.23 16.7752L20.6551 34.0027C20.7131 34.1133 20.7253 34.2423 20.6891 34.3618C20.6528 34.4813 20.5712 34.5818 20.4616 34.6416C20.352 34.7015 20.2233 34.7159 20.1032 34.6818C19.983 34.6477 19.8811 34.5678 19.8194 34.4593L10.8133 17.9968L1.60795 34.868C1.56697 34.9432 1.50646 35.006 1.43279 35.0498C1.35912 35.0935 1.27502 35.1165 1.18935 35.1165Z" fill="#84879C"/>
<path d="M10.8132 34.7072C10.6869 34.7072 10.5657 34.6571 10.4764 34.5677C10.3871 34.4784 10.3369 34.3573 10.3369 34.231V17.0035C10.3369 16.8772 10.3871 16.756 10.4764 16.6667C10.5657 16.5774 10.6869 16.5272 10.8132 16.5272C10.9395 16.5272 11.0606 16.5774 11.1499 16.6667C11.2392 16.756 11.2894 16.8772 11.2894 17.0035V34.231C11.2894 34.3573 11.2392 34.4784 11.1499 34.5677C11.0606 34.6571 10.9395 34.7072 10.8132 34.7072Z" fill="#84879C"/>
<path d="M20.2363 35.6166V35.6424C20.2451 36.8856 20.0078 38.1183 19.5381 39.2694C19.0684 40.4205 18.3756 41.4673 17.4996 42.3495C16.6236 43.2318 15.5817 43.9319 14.4339 44.4097C13.2861 44.8875 12.0552 45.1335 10.8119 45.1335C9.56863 45.1335 8.33766 44.8875 7.18988 44.4097C6.04209 43.9319 5.00019 43.2318 4.12418 42.3495C3.24816 41.4673 2.55536 40.4205 2.08566 39.2694C1.61597 38.1183 1.37867 36.8856 1.38744 35.6424C1.38744 35.6339 1.38744 35.6255 1.38744 35.6166H20.2363Z" fill="#C1CDD3"/>
<path d="M1.38867 35.6161V35.6428C1.38915 37.511 1.94501 39.3369 2.98561 40.8884C4.02621 42.44 5.50458 43.6472 7.23286 44.3566C8.96113 45.066 10.8613 45.2456 12.6919 44.8725C14.5224 44.4995 16.2008 43.5907 17.5137 42.2616C16.2888 42.8257 14.9557 43.1164 13.6071 43.1133C11.441 43.1142 9.34059 42.3694 7.65893 41.0041C5.97726 39.6388 4.81685 37.7362 4.37273 35.6161H1.38867Z" fill="#BAC2D3"/>
<path d="M0.976788 33.6633H20.6498C20.9051 33.6689 21.148 33.7742 21.3266 33.9568C21.5052 34.1393 21.6052 34.3845 21.6052 34.6399C21.6052 34.8953 21.5052 35.1405 21.3266 35.323C21.148 35.5056 20.9051 35.611 20.6498 35.6165H0.976788C0.846734 35.6194 0.71742 35.5962 0.596434 35.5484C0.475449 35.5006 0.365229 35.4292 0.272243 35.3382C0.179256 35.2472 0.105376 35.1386 0.0549366 35.0187C0.00449748 34.8988 -0.0214844 34.77 -0.0214844 34.6399C-0.0214844 34.5098 0.00449748 34.381 0.0549366 34.2611C0.105376 34.1412 0.179256 34.0326 0.272243 33.9416C0.365229 33.8506 0.475449 33.7792 0.596434 33.7314C0.71742 33.6836 0.846734 33.6604 0.976788 33.6633Z" fill="#DBE2EB"/>
<path d="M3.45032 14.4113C6.97579 11.8955 10.7159 13.7855 10.7159 13.7855L28.6784 13.0435V17.581L10.7159 16.8389C10.7159 16.8389 6.97766 18.7289 3.45032 16.2136C3.30852 16.11 3.19316 15.9744 3.11364 15.8178C3.03412 15.6612 2.99268 15.4881 2.99268 15.3124C2.99268 15.1368 3.03412 14.9637 3.11364 14.8071C3.19316 14.6505 3.30852 14.5149 3.45032 14.4113Z" fill="#43567C"/>
<path d="M28.6753 16.2656V17.5781L10.7156 16.8375C10.7156 16.8375 6.97448 18.7298 3.44995 16.2131C3.21127 16.0391 3.05146 15.7774 3.00566 15.4855C2.95987 15.1937 3.03183 14.8956 3.20573 14.6569C3.27183 14.7523 3.35455 14.835 3.44995 14.9011C6.97636 17.4131 10.7156 15.525 10.7156 15.525L28.6753 16.2656Z" fill="#384868"/>
<path d="M10.8132 17.4797C10.6869 17.4797 10.5657 17.4295 10.4764 17.3402C10.3871 17.2509 10.3369 17.1298 10.3369 17.0034V13.7142C10.3369 13.5879 10.3871 13.4668 10.4764 13.3775C10.5657 13.2882 10.6869 13.238 10.8132 13.238C10.9395 13.238 11.0606 13.2882 11.1499 13.3775C11.2392 13.4668 11.2894 13.5879 11.2894 13.7142V17.0034C11.2894 17.1298 11.2392 17.2509 11.1499 17.3402C11.0606 17.4295 10.9395 17.4797 10.8132 17.4797Z" fill="#84879C"/>
<path d="M32.8062 48.8732C35.0271 43.4953 33.275 39.4045 31.8687 30.7851C30.4625 22.1657 32.8062 15.9374 32.8062 11.4951C32.7781 9.21833 32.0782 7.00055 30.7943 5.1201C30.7069 4.98978 30.5887 4.88298 30.4502 4.80913C30.3117 4.73528 30.1572 4.69666 30.0003 4.69666C29.8433 4.69666 29.6888 4.73528 29.5503 4.80913C29.4118 4.88298 29.2937 4.98978 29.2062 5.1201C27.9223 7.00055 27.2224 9.21833 27.1943 11.4951C27.1943 15.9374 29.5325 22.1662 28.1318 30.7851C26.7312 39.404 24.9753 43.4953 27.1943 48.8732C27.1943 48.8732 19.8293 50.1595 17.7256 55.3031H42.2759C40.1721 50.1595 32.8062 48.8732 32.8062 48.8732Z" fill="#43567C"/>
<path d="M42.2744 55.3026H40.3868C38.2797 50.1562 30.9143 48.8742 30.9143 48.8742C33.1385 43.4939 31.383 39.4017 29.9829 30.7828C28.5827 22.1639 30.9143 15.9398 30.9143 11.4965C30.8909 9.31293 30.2464 7.1811 29.0562 5.35028C29.1096 5.26731 29.1583 5.19418 29.2071 5.12106C29.2941 4.99053 29.4119 4.8835 29.5502 4.80948C29.6885 4.73545 29.8429 4.69672 29.9997 4.69672C30.1566 4.69672 30.311 4.73545 30.4493 4.80948C30.5876 4.8835 30.7054 4.99053 30.7924 5.12106C32.0777 7.00105 32.7789 9.21888 32.808 11.4961C32.808 15.9393 30.4643 22.1681 31.8705 30.7823C33.2768 39.3965 35.0262 43.4934 32.808 48.8761C32.8071 48.8742 40.1721 50.1562 42.2744 55.3026Z" fill="#384868"/>
</g>
<defs>
<clipPath id="clip0_1_2096">
<rect width="60" height="60" fill="white"/>
</clipPath>
</defs>
</svg>
